# Blender 4.0.2
# www.blender.org
mtllib slide30deg150h.mtl
o Vert
v 12.500000 -0.495756 -1.500354
v -14.809999 0.501195 0.001674
v 14.809999 0.501195 0.001674
v 12.500000 0.504242 -1.498323
v -12.500000 0.504242 -1.498323
v 14.809999 -0.498803 -0.000357
v -12.500000 -0.495756 -1.500354
v -14.809999 -0.498803 -0.000357
vn -0.0000 -1.0000 -0.0020
vn -0.0000 0.0020 -1.0000
vn 0.5446 0.0017 -0.8387
vn -0.5446 0.0017 -0.8387
vn -0.0000 -0.0020 1.0000
s 0
f 4//1 3//1 2//1
f 7//2 4//2 1//2
f 1//1 6//1 8//1
f 5//1 4//1 2//1
f 7//1 1//1 8//1
f 3//3 1//3 4//3
f 8//2 3//2 6//2
f 2//4 7//4 8//4
f 1//5 4//5 5//5
f 1//5 5//5 7//5
f 7//2 5//2 4//2
f 3//3 6//3 1//3
f 8//2 2//2 3//2
f 2//4 5//4 7//4
